<?xml version="1.0" encoding="UTF-8"?> <!-- Generator: Adobe Illustrator 21.0.2, SVG Export Plug-In . SVG Version: 6.00 Build 0) --> <svg xmlns="http://www.w3.org/2000/svg" xmlns:xlink="http://www.w3.org/1999/xlink" id="Capa_1" x="0px" y="0px" viewBox="-49 141 512 512" style="enable-background:new -49 141 512 512;" xml:space="preserve"> <style type="text/css"> .st0{fill:#212121;} .st1{fill:#FFFFFF;} </style> <g> <path class="st0" d="M318.5,208H95.5C52.8,208,18,242.8,18,285.5v222.9c0,42.7,34.8,77.5,77.5,77.5h222.9 c42.7,0,77.5-34.8,77.5-77.5V285.5C396,242.8,361.2,208,318.5,208z"></path> <g> <path class="st1" d="M215.4,301.3c13.1-17.3,31.4-17.4,31.4-17.4s2.7,16.3-10.3,32c-13.9,16.7-29.8,14-29.8,14 S203.8,316.7,215.4,301.3z"></path> <path class="st1" d="M244.2,483.6c-11.7,0-20.8-7.9-33.1-7.9c-12.5,0-25,8.2-33.1,8.2c-23.2,0-52.6-50.3-52.6-90.7 c0-39.8,24.8-60.6,48.1-60.6c15.1,0,26.9,8.7,34.8,8.7c6.8,0,19.3-9.3,35.6-9.3c28.1,0,39.2,20,39.2,20s-21.6,11.1-21.6,37.9 c0,30.3,26.9,40.7,26.9,40.7S269.7,483.6,244.2,483.6z"></path> </g> </g> </svg> 