<svg width="84" height="28" viewBox="0 0 84 28" fill="none" xmlns="http://www.w3.org/2000/svg">
<path d="M80.9273 11.0879C79.1683 9.39587 76.8443 8.46393 74.3863 8.46393C74.3848 8.46393 74.3819 8.46393 74.3805 8.46393C71.9196 8.46539 69.5955 9.40024 67.8365 11.0952C67.7943 11.136 67.752 11.1768 67.7113 11.219C67.3152 11.5539 65.2824 13.3799 63.5132 17.0669C61.824 20.5879 59.4796 22.7255 59.4578 22.7459L59.4024 22.7983C59.3617 22.8406 59.3194 22.8813 59.2758 22.9236C56.6095 25.4937 52.2687 25.4966 49.5996 22.9294C48.2177 21.5999 47.4561 19.8132 47.4561 17.8969C47.4561 15.9806 48.2177 14.1939 49.5996 12.8644C52.2687 10.2972 56.6095 10.3001 59.2758 12.8703C59.318 12.911 59.3602 12.9533 59.4024 12.9955C59.8801 13.4804 60.6591 13.4862 61.144 13.0086C61.6289 12.531 61.6347 11.7519 61.1571 11.267C61.1018 11.2102 61.045 11.1549 60.9867 11.0981C59.2277 9.4017 56.9037 8.46685 54.4413 8.46539C54.4384 8.46539 54.4369 8.46539 54.434 8.46539C51.9746 8.46539 49.652 9.39733 47.893 11.0894C47.7415 11.235 47.5959 11.385 47.4561 11.5379V1.52244C47.4561 0.842411 46.9042 0.290527 46.2242 0.290527C45.5442 0.290527 44.9923 0.842411 44.9923 1.52244V26.1053C44.9923 26.7853 45.5442 27.3372 46.2242 27.3372C46.9042 27.3372 47.4561 26.7853 47.4561 26.1053V24.2545C47.5959 24.4074 47.7415 24.5574 47.893 24.703C49.652 26.395 51.976 27.327 54.434 27.327C54.4355 27.327 54.4384 27.327 54.4399 27.327C56.9008 27.3255 59.2262 26.3907 60.9838 24.6943C61.0333 24.6462 61.0814 24.5982 61.1294 24.5501C61.4469 24.2589 63.9063 21.9319 65.7309 18.1299C67.3938 14.6628 69.2912 13.1033 69.3058 13.0901L69.364 13.0435L69.4164 12.9911C69.4572 12.9489 69.4994 12.9081 69.5431 12.8659C72.2093 10.2958 76.5487 10.2943 79.2178 12.8601C80.5997 14.1895 81.3613 15.9762 81.3613 17.8925C81.3613 19.8074 80.6012 21.5956 79.2178 22.925C76.537 25.5039 72.186 25.4922 69.5198 22.8988C69.4761 22.8566 69.4339 22.8144 69.3931 22.7721C68.917 22.2858 68.1379 22.2785 67.6516 22.7532C67.1652 23.2294 67.1579 24.0084 67.6326 24.4948C67.688 24.5516 67.7448 24.6083 67.803 24.6637C69.5606 26.3717 71.8875 27.3168 74.3572 27.3241C74.3659 27.3241 74.3746 27.3241 74.3834 27.3241C76.8428 27.3241 79.1654 26.3921 80.9259 24.7001C82.7956 22.9017 83.8251 20.4845 83.8236 17.8925C83.828 15.3035 82.797 12.8863 80.9273 11.0879Z" fill="white"/>
<path d="M9.44172 8.45813C4.23596 8.45813 0 12.6941 0 17.8998V26.0995C0 26.7795 0.551883 27.3314 1.23191 27.3314C1.91193 27.3314 2.46382 26.7795 2.46382 26.0995V17.8998C2.46382 14.0512 5.59455 10.9219 9.44172 10.9219C13.2889 10.9219 16.4196 14.0527 16.4196 17.8998V26.0995C16.4196 26.7795 16.9715 27.3314 17.6515 27.3314C18.3316 27.3314 18.8834 26.7795 18.8834 26.0995V17.8998C18.882 12.6941 14.6475 8.45813 9.44172 8.45813Z" fill="white"/>
<path d="M38.5489 11.1376C36.7753 9.40618 34.4338 8.45386 31.9554 8.45386C26.7496 8.45386 22.5137 12.6898 22.5137 17.8956C22.5137 23.1013 26.7496 27.3373 31.9554 27.3373C34.2445 27.3373 36.4534 26.5073 38.1732 25.0002C38.6843 24.5517 38.7367 23.7741 38.2882 23.263C37.8397 22.7519 37.0621 22.6994 36.551 23.1479C35.2798 24.2619 33.6474 24.8749 31.9554 24.8749C28.1068 24.8749 24.9775 21.7442 24.9775 17.897C24.9775 14.0499 28.1082 10.9191 31.9554 10.9191C35.3351 10.9191 38.1266 13.2635 38.7862 16.4496H29.8439C29.1639 16.4496 28.612 17.0015 28.612 17.6815C28.612 18.3615 29.1639 18.9134 29.8439 18.9134H40.1623C40.4943 18.9134 40.8117 18.7795 41.0447 18.5421C41.2762 18.3048 41.4029 17.9829 41.3942 17.6509C41.3287 15.1784 40.3195 12.866 38.5489 11.1376Z" fill="white"/>
</svg>
