<svg width="19" height="19" viewBox="0 0 19 19" fill="none" xmlns="http://www.w3.org/2000/svg">
    <path fill-rule="evenodd" clip-rule="evenodd"
          d="M0 7.6C0 11.7915 3.40833 15.2 7.59963 15.2C9.35375 15.2 10.9707 14.603 12.2581 13.6014L17.3777 18.7214C17.5628 18.9075 17.8058 19 18.0491 19C18.2924 19 18.5355 18.9075 18.7217 18.7214C19.0928 18.3501 19.0928 17.7485 18.7217 17.3774L13.6019 12.2573C14.6027 10.9701 15.1993 9.35356 15.1993 7.6C15.1993 3.40849 11.7909 0 7.59963 0C3.40833 0 0 3.40849 0 7.6ZM11.6643 11.5918C12.6751 10.5627 13.2994 9.1528 13.2994 7.6C13.2994 4.4573 10.7422 1.9 7.59963 1.9C4.45708 1.9 1.89991 4.4573 1.89991 7.6C1.89991 10.7427 4.45708 13.3 7.59963 13.3C9.15295 13.3 10.5633 12.6752 11.5924 11.6637C11.6037 11.6512 11.6154 11.6389 11.6274 11.6268C11.6395 11.6148 11.6518 11.6031 11.6643 11.5918Z"
          fill="#1F1F30"/>
</svg>
