<?xml version="1.0" encoding="UTF-8"?> <!-- Generator: Adobe Illustrator 21.0.2, SVG Export Plug-In . SVG Version: 6.00 Build 0) -->
<svg xmlns="http://www.w3.org/2000/svg"
     id="Capa_1" x="0px" y="0px" viewBox="-49 141 512 512" style="enable-background:new -49 141 512 512;"
     xml:space="preserve"> <style type="text/css"> .st0{fill:#212121;} .st1{fill:#2196F3;} .st2{fill:#4CAF50;} .st3{fill:#FFC107;} .st4{fill:#F44336;} </style>
    <g> <path class="st0"
              d="M317.9,208H94.9c-42.7,0-77.5,34.8-77.5,77.5v222.9c0,42.7,34.8,77.5,77.5,77.5h222.9 c42.7,0,77.5-34.8,77.5-77.5V285.5C395.4,242.8,360.6,208,317.9,208z"></path>
        <g> <path class="st1"
                  d="M230.7,391L145,473.5c-4-2.7-6.4-7.3-6.3-12.2V320.7c0-4.9,2.3-9.4,6.3-12.2L230.7,391z"></path>
            <path class="st2"
                  d="M260.6,362.2l-30,28.8L145,308.6c0.3-0.3,0.7-0.5,1-0.7c4.5-2.7,10.2-2.8,14.8-0.2L260.6,362.2z"></path>
            <path class="st3"
                  d="M296.9,391c0.1,5.5-2.9,10.5-7.7,13.2l-28.6,15.6l-30-28.8l30-28.8l28.6,15.6C294,380.5,297,385.5,296.9,391z "></path>
            <path class="st4"
                  d="M260.6,419.8l-99.8,54.6c-4.6,2.6-10.3,2.5-14.8-0.2c-0.3-0.2-0.7-0.4-1-0.7l85.6-82.5L260.6,419.8z"></path> </g> </g> </svg>