<svg width="73" height="73" viewBox="0 0 73 73" fill="none" xmlns="http://www.w3.org/2000/svg">
<path fill-rule="evenodd" clip-rule="evenodd" d="M45.6513 12.8347C45.2322 13.1959 44.6009 13.1476 44.2412 12.7267L36 3.08391L27.7588 12.7267C27.3991 13.1476 26.7678 13.1959 26.3487 12.8347C25.9296 12.4735 25.8815 11.8394 26.2412 11.4186L35.2398 0.889487C35.639 0.422414 36.361 0.422414 36.7602 0.889487L45.7588 11.4186C46.1185 11.8394 46.0704 12.4735 45.6513 12.8347Z" fill="#ECF1F6"/>
<!-- <path fill-rule="evenodd" clip-rule="evenodd" d="M36.0676 52.1351C44.9414 52.1351 52.1351 44.9414 52.1351 36.0676C52.1351 27.1937 44.9414 20 36.0676 20C27.1937 20 20 27.1937 20 36.0676C20 44.9414 27.1937 52.1351 36.0676 52.1351ZM36.0676 54.1351C46.046 54.1351 54.1351 46.046 54.1351 36.0676C54.1351 26.0891 46.046 18 36.0676 18C26.0891 18 18 26.0891 18 36.0676C18 46.046 26.0891 54.1351 36.0676 54.1351Z" fill="#ECF1F6"/> -->
</svg>
